<?xml version="1.0" encoding="UTF-8" standalone="no"?>
<svg viewBox="0 0 282.6875 617.75" xmlns="http://www.w3.org/2000/svg" xmlns:xlink="http://www.w3.org/1999/xlink">
<defs>
<linearGradient id="linearGradient7915">
<stop offset="0" stop-color="#1a1a1a"/>
<stop offset="1" stop-color="#1a1a1a" stop-opacity="0"/>
</linearGradient>
<linearGradient gradientUnits="userSpaceOnUse" id="linearGradient13986" x2="0" y1="49.86544" y2="992.5392">
<stop offset="0" stop-color="#333"/>
<stop offset="1" stop-color="#333" stop-opacity="0"/>
</linearGradient>
<linearGradient gradientUnits="userSpaceOnUse" id="linearGradient7921" x1="1050.9672" x2="992.4657" xlink:href="#linearGradient7915"/>
<linearGradient gradientUnits="userSpaceOnUse" id="linearGradient7938" x1="703.4657" x2="761.9672" xlink:href="#linearGradient7915"/>
</defs>
<path d="m10,.625v10.125 581.8125 5.8125c4.14948-.0322 6.79215-2.02335 8.65625-5.0625h245.34375c1.86414,3.0398 4.53749,5.03025 8.6875,5.0625v-5.8125-581.8125-10.125c-3.50183,2.80683-7.33679,3.15235-10.375,9.375h-241.9375c-3.03871-6.22892-6.87196-6.5672-10.375-9.375z" fill="#999" transform="translate(0,9.375)"/>
<path d="m10,.625v597.75c5.85261-.0455 8.74565-3.97686 10.625-9.25h241.4375c1.87935,5.27314 4.7724,9.20452 10.625,9.25v-597.75c-3.97014,3.1822-8.38502,3.13375-11.5625,12.15625h-239.59375c-3.17747-9.02195-7.56119-8.97411-11.53125-12.15625z" fill="url(#linearGradient13986)" transform="translate(0,9.375)"/>
<g transform="translate(-735.55103,613.40063)">
<path d="m819.14996-352.24393h6.2825v6.28251h-6.2825z" fill="#1a1a1a"/>
<path d="m808.24951-352.24393h6.2825v6.28251h-6.2825z" fill="#1a1a1a"/>
<path d="m786.44849-352.24393h6.2825v6.28251h-6.2825z" fill="#1a1a1a"/>
<path d="m775.54803-352.24393h6.2825v6.28251h-6.2825z" fill="#1a1a1a"/>
<path d="m797.349-352.24393h6.2825v6.28251h-6.2825z" fill="#1a1a1a"/>
<path d="m851.85144-352.24393h6.2825v6.28251h-6.2825z" fill="#1a1a1a"/>
<path d="m830.05042-352.24393h6.2825v6.28251h-6.2825z" fill="#1a1a1a"/>
<path d="m840.95093-352.24393h6.2825v6.28251h-6.2825z" fill="#1a1a1a"/>
<path d="m862.75189-352.24393h6.2825v6.28251h-6.2825z" fill="#1a1a1a"/>
<g transform="translate(0,10.9261)">
<path d="m819.14996-352.24393h6.2825v6.28251h-6.2825z" fill="#1a1a1a"/>
<path d="m808.24951-352.24393h6.2825v6.28251h-6.2825z" fill="#1a1a1a"/>
<path d="m786.44849-352.24393h6.2825v6.28251h-6.2825z" fill="#1a1a1a"/>
<path d="m775.54803-352.24393h6.2825v6.28251h-6.2825z" fill="#1a1a1a"/>
<path d="m797.349-352.24393h6.2825v6.28251h-6.2825z" fill="#1a1a1a"/>
<path d="m851.85144-352.24393h6.2825v6.28251h-6.2825z" fill="#1a1a1a"/>
<path d="m830.05042-352.24393h6.2825v6.28251h-6.2825z" fill="#1a1a1a"/>
<path d="m840.95093-352.24393h6.2825v6.28251h-6.2825z" fill="#1a1a1a"/>
<path d="m862.75189-352.24393h6.2825v6.28251h-6.2825z" fill="#1a1a1a"/>
</g>
<g transform="translate(0,21.8522)">
<path d="m819.14996-352.24393h6.2825v6.28251h-6.2825z" fill="#1a1a1a"/>
<path d="m808.24951-352.24393h6.2825v6.28251h-6.2825z" fill="#1a1a1a"/>
<path d="m786.44849-352.24393h6.2825v6.28251h-6.2825z" fill="#1a1a1a"/>
<path d="m775.54803-352.24393h6.2825v6.28251h-6.2825z" fill="#1a1a1a"/>
<path d="m797.349-352.24393h6.2825v6.28251h-6.2825z" fill="#1a1a1a"/>
<path d="m851.85144-352.24393h6.2825v6.28251h-6.2825z" fill="#1a1a1a"/>
<path d="m830.05042-352.24393h6.2825v6.28251h-6.2825z" fill="#1a1a1a"/>
<path d="m840.95093-352.24393h6.2825v6.28251h-6.2825z" fill="#1a1a1a"/>
<path d="m862.75189-352.24393h6.2825v6.28251h-6.2825z" fill="#1a1a1a"/>
</g>
<g transform="translate(0,32.77832)">
<path d="m819.14996-352.24393h6.2825v6.28251h-6.2825z" fill="#1a1a1a"/>
<path d="m808.24951-352.24393h6.2825v6.28251h-6.2825z" fill="#1a1a1a"/>
<path d="m786.44849-352.24393h6.2825v6.28251h-6.2825z" fill="#1a1a1a"/>
<path d="m775.54803-352.24393h6.2825v6.28251h-6.2825z" fill="#1a1a1a"/>
<path d="m797.349-352.24393h6.2825v6.28251h-6.2825z" fill="#1a1a1a"/>
<path d="m851.85144-352.24393h6.2825v6.28251h-6.2825z" fill="#1a1a1a"/>
<path d="m830.05042-352.24393h6.2825v6.28251h-6.2825z" fill="#1a1a1a"/>
<path d="m840.95093-352.24393h6.2825v6.28251h-6.2825z" fill="#1a1a1a"/>
<path d="m862.75189-352.24393h6.2825v6.28251h-6.2825z" fill="#1a1a1a"/>
</g>
<g transform="translate(0,43.7044)">
<path d="m819.14996-352.24393h6.2825v6.28251h-6.2825z" fill="#1a1a1a"/>
<path d="m808.24951-352.24393h6.2825v6.28251h-6.2825z" fill="#1a1a1a"/>
<path d="m786.44849-352.24393h6.2825v6.28251h-6.2825z" fill="#1a1a1a"/>
<path d="m775.54803-352.24393h6.2825v6.28251h-6.2825z" fill="#1a1a1a"/>
<path d="m797.349-352.24393h6.2825v6.28251h-6.2825z" fill="#1a1a1a"/>
<path d="m851.85144-352.24393h6.2825v6.28251h-6.2825z" fill="#1a1a1a"/>
<path d="m830.05042-352.24393h6.2825v6.28251h-6.2825z" fill="#1a1a1a"/>
<path d="m840.95093-352.24393h6.2825v6.28251h-6.2825z" fill="#1a1a1a"/>
<path d="m862.75189-352.24393h6.2825v6.28251h-6.2825z" fill="#1a1a1a"/>
</g>
<g transform="translate(0,54.63048)">
<path d="m819.14996-352.24393h6.2825v6.28251h-6.2825z" fill="#1a1a1a"/>
<path d="m808.24951-352.24393h6.2825v6.28251h-6.2825z" fill="#1a1a1a"/>
<path d="m786.44849-352.24393h6.2825v6.28251h-6.2825z" fill="#1a1a1a"/>
<path d="m775.54803-352.24393h6.2825v6.28251h-6.2825z" fill="#1a1a1a"/>
<path d="m797.349-352.24393h6.2825v6.28251h-6.2825z" fill="#1a1a1a"/>
<path d="m851.85144-352.24393h6.2825v6.28251h-6.2825z" fill="#1a1a1a"/>
<path d="m830.05042-352.24393h6.2825v6.28251h-6.2825z" fill="#1a1a1a"/>
<path d="m840.95093-352.24393h6.2825v6.28251h-6.2825z" fill="#1a1a1a"/>
<path d="m862.75189-352.24393h6.2825v6.28251h-6.2825z" fill="#1a1a1a"/>
</g>
<g transform="translate(0,65.55656)">
<path d="m819.14996-352.24393h6.2825v6.28251h-6.2825z" fill="#1a1a1a"/>
<path d="m808.24951-352.24393h6.2825v6.28251h-6.2825z" fill="#1a1a1a"/>
<path d="m786.44849-352.24393h6.2825v6.28251h-6.2825z" fill="#1a1a1a"/>
<path d="m775.54803-352.24393h6.2825v6.28251h-6.2825z" fill="#1a1a1a"/>
<path d="m797.349-352.24393h6.2825v6.28251h-6.2825z" fill="#1a1a1a"/>
<path d="m851.85144-352.24393h6.2825v6.28251h-6.2825z" fill="#1a1a1a"/>
<path d="m830.05042-352.24393h6.2825v6.28251h-6.2825z" fill="#1a1a1a"/>
<path d="m840.95093-352.24393h6.2825v6.28251h-6.2825z" fill="#1a1a1a"/>
<path d="m862.75189-352.24393h6.2825v6.28251h-6.2825z" fill="#1a1a1a"/>
</g>
<g transform="translate(0,76.48266)">
<path d="m819.14996-352.24393h6.2825v6.28251h-6.2825z" fill="#1a1a1a"/>
<path d="m808.24951-352.24393h6.2825v6.28251h-6.2825z" fill="#1a1a1a"/>
<path d="m786.44849-352.24393h6.2825v6.28251h-6.2825z" fill="#1a1a1a"/>
<path d="m775.54803-352.24393h6.2825v6.28251h-6.2825z" fill="#1a1a1a"/>
<path d="m797.349-352.24393h6.2825v6.28251h-6.2825z" fill="#1a1a1a"/>
<path d="m851.85144-352.24393h6.2825v6.28251h-6.2825z" fill="#1a1a1a"/>
<path d="m830.05042-352.24393h6.2825v6.28251h-6.2825z" fill="#1a1a1a"/>
<path d="m840.95093-352.24393h6.2825v6.28251h-6.2825z" fill="#1a1a1a"/>
<path d="m862.75189-352.24393h6.2825v6.28251h-6.2825z" fill="#1a1a1a"/>
</g>
<g transform="translate(0,87.40877)">
<path d="m819.14996-352.24393h6.2825v6.28251h-6.2825z" fill="#1a1a1a"/>
<path d="m808.24951-352.24393h6.2825v6.28251h-6.2825z" fill="#1a1a1a"/>
<path d="m786.44849-352.24393h6.2825v6.28251h-6.2825z" fill="#1a1a1a"/>
<path d="m775.54803-352.24393h6.2825v6.28251h-6.2825z" fill="#1a1a1a"/>
<path d="m797.349-352.24393h6.2825v6.28251h-6.2825z" fill="#1a1a1a"/>
<path d="m851.85144-352.24393h6.2825v6.28251h-6.2825z" fill="#1a1a1a"/>
<path d="m830.05042-352.24393h6.2825v6.28251h-6.2825z" fill="#1a1a1a"/>
<path d="m840.95093-352.24393h6.2825v6.28251h-6.2825z" fill="#1a1a1a"/>
<path d="m862.75189-352.24393h6.2825v6.28251h-6.2825z" fill="#1a1a1a"/>
</g>
<g transform="translate(0,98.33485)">
<path d="m819.14996-352.24393h6.2825v6.28251h-6.2825z" fill="#1a1a1a"/>
<path d="m808.24951-352.24393h6.2825v6.28251h-6.2825z" fill="#1a1a1a"/>
<path d="m786.44849-352.24393h6.2825v6.28251h-6.2825z" fill="#1a1a1a"/>
<path d="m775.54803-352.24393h6.2825v6.28251h-6.2825z" fill="#1a1a1a"/>
<path d="m797.349-352.24393h6.2825v6.28251h-6.2825z" fill="#1a1a1a"/>
<path d="m851.85144-352.24393h6.2825v6.28251h-6.2825z" fill="#1a1a1a"/>
<path d="m830.05042-352.24393h6.2825v6.28251h-6.2825z" fill="#1a1a1a"/>
<path d="m840.95093-352.24393h6.2825v6.28251h-6.2825z" fill="#1a1a1a"/>
<path d="m862.75189-352.24393h6.2825v6.28251h-6.2825z" fill="#1a1a1a"/>
</g>
<g transform="translate(0,109.261)">
<path d="m819.14996-352.24393h6.2825v6.28251h-6.2825z" fill="#1a1a1a"/>
<path d="m808.24951-352.24393h6.2825v6.28251h-6.2825z" fill="#1a1a1a"/>
<path d="m786.44849-352.24393h6.2825v6.28251h-6.2825z" fill="#1a1a1a"/>
<path d="m775.54803-352.24393h6.2825v6.28251h-6.2825z" fill="#1a1a1a"/>
<path d="m797.349-352.24393h6.2825v6.28251h-6.2825z" fill="#1a1a1a"/>
<path d="m851.85144-352.24393h6.2825v6.28251h-6.2825z" fill="#1a1a1a"/>
<path d="m830.05042-352.24393h6.2825v6.28251h-6.2825z" fill="#1a1a1a"/>
<path d="m840.95093-352.24393h6.2825v6.28251h-6.2825z" fill="#1a1a1a"/>
<path d="m862.75189-352.24393h6.2825v6.28251h-6.2825z" fill="#1a1a1a"/>
</g>
<g transform="translate(0,120.18706)">
<path d="m819.14996-352.24393h6.2825v6.28251h-6.2825z" fill="#1a1a1a"/>
<path d="m808.24951-352.24393h6.2825v6.28251h-6.2825z" fill="#1a1a1a"/>
<path d="m786.44849-352.24393h6.2825v6.28251h-6.2825z" fill="#1a1a1a"/>
<path d="m775.54803-352.24393h6.2825v6.28251h-6.2825z" fill="#1a1a1a"/>
<path d="m797.349-352.24393h6.2825v6.28251h-6.2825z" fill="#1a1a1a"/>
<path d="m851.85144-352.24393h6.2825v6.28251h-6.2825z" fill="#1a1a1a"/>
<path d="m830.05042-352.24393h6.2825v6.28251h-6.2825z" fill="#1a1a1a"/>
<path d="m840.95093-352.24393h6.2825v6.28251h-6.2825z" fill="#1a1a1a"/>
<path d="m862.75189-352.24393h6.2825v6.28251h-6.2825z" fill="#1a1a1a"/>
</g>
<g transform="translate(0,131.11315)">
<path d="m819.14996-352.24393h6.2825v6.28251h-6.2825z" fill="#1a1a1a"/>
<path d="m808.24951-352.24393h6.2825v6.28251h-6.2825z" fill="#1a1a1a"/>
<path d="m786.44849-352.24393h6.2825v6.28251h-6.2825z" fill="#1a1a1a"/>
<path d="m775.54803-352.24393h6.2825v6.28251h-6.2825z" fill="#1a1a1a"/>
<path d="m797.349-352.24393h6.2825v6.28251h-6.2825z" fill="#1a1a1a"/>
<path d="m851.85144-352.24393h6.2825v6.28251h-6.2825z" fill="#1a1a1a"/>
<path d="m830.05042-352.24393h6.2825v6.28251h-6.2825z" fill="#1a1a1a"/>
<path d="m840.95093-352.24393h6.2825v6.28251h-6.2825z" fill="#1a1a1a"/>
<path d="m862.75189-352.24393h6.2825v6.28251h-6.2825z" fill="#1a1a1a"/>
</g>
<g transform="translate(0,142.03923)">
<path d="m819.14996-352.24393h6.2825v6.28251h-6.2825z" fill="#1a1a1a"/>
<path d="m808.24951-352.24393h6.2825v6.28251h-6.2825z" fill="#1a1a1a"/>
<path d="m786.44849-352.24393h6.2825v6.28251h-6.2825z" fill="#1a1a1a"/>
<path d="m775.54803-352.24393h6.2825v6.28251h-6.2825z" fill="#1a1a1a"/>
<path d="m797.349-352.24393h6.2825v6.28251h-6.2825z" fill="#1a1a1a"/>
<path d="m851.85144-352.24393h6.2825v6.28251h-6.2825z" fill="#1a1a1a"/>
<path d="m830.05042-352.24393h6.2825v6.28251h-6.2825z" fill="#1a1a1a"/>
<path d="m840.95093-352.24393h6.2825v6.28251h-6.2825z" fill="#1a1a1a"/>
<path d="m862.75189-352.24393h6.2825v6.28251h-6.2825z" fill="#1a1a1a"/>
</g>
<g transform="translate(0,152.96537)">
<path d="m819.14996-352.24393h6.2825v6.28251h-6.2825z" fill="#1a1a1a"/>
<path d="m808.24951-352.24393h6.2825v6.28251h-6.2825z" fill="#1a1a1a"/>
<path d="m786.44849-352.24393h6.2825v6.28251h-6.2825z" fill="#1a1a1a"/>
<path d="m775.54803-352.24393h6.2825v6.28251h-6.2825z" fill="#1a1a1a"/>
<path d="m797.349-352.24393h6.2825v6.28251h-6.2825z" fill="#1a1a1a"/>
<path d="m851.85144-352.24393h6.2825v6.28251h-6.2825z" fill="#1a1a1a"/>
<path d="m830.05042-352.24393h6.2825v6.28251h-6.2825z" fill="#1a1a1a"/>
<path d="m840.95093-352.24393h6.2825v6.28251h-6.2825z" fill="#1a1a1a"/>
<path d="m862.75189-352.24393h6.2825v6.28251h-6.2825z" fill="#1a1a1a"/>
</g>
<g transform="translate(0,163.89144)">
<path d="m819.14996-352.24393h6.2825v6.28251h-6.2825z" fill="#1a1a1a"/>
<path d="m808.24951-352.24393h6.2825v6.28251h-6.2825z" fill="#1a1a1a"/>
<path d="m786.44849-352.24393h6.2825v6.28251h-6.2825z" fill="#1a1a1a"/>
<path d="m775.54803-352.24393h6.2825v6.28251h-6.2825z" fill="#1a1a1a"/>
<path d="m797.349-352.24393h6.2825v6.28251h-6.2825z" fill="#1a1a1a"/>
<path d="m851.85144-352.24393h6.2825v6.28251h-6.2825z" fill="#1a1a1a"/>
<path d="m830.05042-352.24393h6.2825v6.28251h-6.2825z" fill="#1a1a1a"/>
<path d="m840.95093-352.24393h6.2825v6.28251h-6.2825z" fill="#1a1a1a"/>
<path d="m862.75189-352.24393h6.2825v6.28251h-6.2825z" fill="#1a1a1a"/>
</g>
<g transform="translate(0,174.81752)">
<path d="m819.14996-352.24393h6.2825v6.28251h-6.2825z" fill="#1a1a1a"/>
<path d="m808.24951-352.24393h6.2825v6.28251h-6.2825z" fill="#1a1a1a"/>
<path d="m786.44849-352.24393h6.2825v6.28251h-6.2825z" fill="#1a1a1a"/>
<path d="m775.54803-352.24393h6.2825v6.28251h-6.2825z" fill="#1a1a1a"/>
<path d="m797.349-352.24393h6.2825v6.28251h-6.2825z" fill="#1a1a1a"/>
<path d="m851.85144-352.24393h6.2825v6.28251h-6.2825z" fill="#1a1a1a"/>
<path d="m830.05042-352.24393h6.2825v6.28251h-6.2825z" fill="#1a1a1a"/>
<path d="m840.95093-352.24393h6.2825v6.28251h-6.2825z" fill="#1a1a1a"/>
<path d="m862.75189-352.24393h6.2825v6.28251h-6.2825z" fill="#1a1a1a"/>
</g>
<g transform="translate(0,185.74365)">
<path d="m819.14996-352.24393h6.2825v6.28251h-6.2825z" fill="#1a1a1a"/>
<path d="m808.24951-352.24393h6.2825v6.28251h-6.2825z" fill="#1a1a1a"/>
<path d="m786.44849-352.24393h6.2825v6.28251h-6.2825z" fill="#1a1a1a"/>
<path d="m775.54803-352.24393h6.2825v6.28251h-6.2825z" fill="#1a1a1a"/>
<path d="m797.349-352.24393h6.2825v6.28251h-6.2825z" fill="#1a1a1a"/>
<path d="m851.85144-352.24393h6.2825v6.28251h-6.2825z" fill="#1a1a1a"/>
<path d="m830.05042-352.24393h6.2825v6.28251h-6.2825z" fill="#1a1a1a"/>
<path d="m840.95093-352.24393h6.2825v6.28251h-6.2825z" fill="#1a1a1a"/>
<path d="m862.75189-352.24393h6.2825v6.28251h-6.2825z" fill="#1a1a1a"/>
</g>
<g transform="translate(0,196.66973)">
<path d="m819.14996-352.24393h6.2825v6.28251h-6.2825z" fill="#1a1a1a"/>
<path d="m808.24951-352.24393h6.2825v6.28251h-6.2825z" fill="#1a1a1a"/>
<path d="m786.44849-352.24393h6.2825v6.28251h-6.2825z" fill="#1a1a1a"/>
<path d="m775.54803-352.24393h6.2825v6.28251h-6.2825z" fill="#1a1a1a"/>
<path d="m797.349-352.24393h6.2825v6.28251h-6.2825z" fill="#1a1a1a"/>
<path d="m851.85144-352.24393h6.2825v6.28251h-6.2825z" fill="#1a1a1a"/>
<path d="m830.05042-352.24393h6.2825v6.28251h-6.2825z" fill="#1a1a1a"/>
<path d="m840.95093-352.24393h6.2825v6.28251h-6.2825z" fill="#1a1a1a"/>
<path d="m862.75189-352.24393h6.2825v6.28251h-6.2825z" fill="#1a1a1a"/>
</g>
<g transform="translate(0,207.59583)">
<path d="m819.14996-352.24393h6.2825v6.28251h-6.2825z" fill="#1a1a1a"/>
<path d="m808.24951-352.24393h6.2825v6.28251h-6.2825z" fill="#1a1a1a"/>
<path d="m786.44849-352.24393h6.2825v6.28251h-6.2825z" fill="#1a1a1a"/>
<path d="m775.54803-352.24393h6.2825v6.28251h-6.2825z" fill="#1a1a1a"/>
<path d="m797.349-352.24393h6.2825v6.28251h-6.2825z" fill="#1a1a1a"/>
<path d="m851.85144-352.24393h6.2825v6.28251h-6.2825z" fill="#1a1a1a"/>
<path d="m830.05042-352.24393h6.2825v6.28251h-6.2825z" fill="#1a1a1a"/>
<path d="m840.95093-352.24393h6.2825v6.28251h-6.2825z" fill="#1a1a1a"/>
<path d="m862.75189-352.24393h6.2825v6.28251h-6.2825z" fill="#1a1a1a"/>
</g>
<path d="m819.14996-133.722h6.2825v6.28251h-6.2825z" fill="#1a1a1a"/>
<path d="m808.24951-133.722h6.2825v6.28251h-6.2825z" fill="#1a1a1a"/>
<path d="m786.44849-133.722h6.2825v6.28251h-6.2825z" fill="#1a1a1a"/>
<path d="m775.54803-133.722h6.2825v6.28251h-6.2825z" fill="#1a1a1a"/>
<path d="m797.349-133.722h6.2825v6.28251h-6.2825z" fill="#1a1a1a"/>
<path d="m851.85144-133.722h6.2825v6.28251h-6.2825z" fill="#1a1a1a"/>
<path d="m830.05042-133.722h6.2825v6.28251h-6.2825z" fill="#1a1a1a"/>
<path d="m840.95093-133.722h6.2825v6.28251h-6.2825z" fill="#1a1a1a"/>
<path d="m862.75189-133.722h6.2825v6.28251h-6.2825z" fill="#1a1a1a"/>
<path d="m819.14996-122.7959h6.2825v6.28251h-6.2825z" fill="#1a1a1a"/>
<path d="m808.24951-122.7959h6.2825v6.28251h-6.2825z" fill="#1a1a1a"/>
<path d="m786.44849-122.7959h6.2825v6.28251h-6.2825z" fill="#1a1a1a"/>
<path d="m775.54803-122.7959h6.2825v6.28251h-6.2825z" fill="#1a1a1a"/>
<path d="m797.349-122.7959h6.2825v6.28251h-6.2825z" fill="#1a1a1a"/>
<path d="m851.85144-122.7959h6.2825v6.28251h-6.2825z" fill="#1a1a1a"/>
<path d="m830.05042-122.7959h6.2825v6.28251h-6.2825z" fill="#1a1a1a"/>
<path d="m840.95093-122.7959h6.2825v6.28251h-6.2825z" fill="#1a1a1a"/>
<path d="m862.75189-122.7959h6.2825v6.28251h-6.2825z" fill="#1a1a1a"/>
<path d="m819.14996-111.86982h6.2825v6.28251h-6.2825z" fill="#1a1a1a"/>
<path d="m808.24951-111.86982h6.2825v6.28251h-6.2825z" fill="#1a1a1a"/>
<path d="m851.85144-111.86982h6.2825v6.28251h-6.2825z" fill="#1a1a1a"/>
<path d="m830.05042-111.86982h6.2825v6.28251h-6.2825z" fill="#1a1a1a"/>
<path d="m840.95093-111.86982h6.2825v6.28251h-6.2825z" fill="#1a1a1a"/>
<path d="m862.75189-111.86982h6.2825v6.28251h-6.2825z" fill="#1a1a1a"/>
<path d="m819.14996-100.94371h6.2825v6.28251h-6.2825z" fill="#1a1a1a"/>
<path d="m808.24951-100.94371h6.2825v6.28251h-6.2825z" fill="#1a1a1a"/>
<path d="m851.85144-100.94371h6.2825v6.28251h-6.2825z" fill="#1a1a1a"/>
<path d="m830.05042-100.94371h6.2825v6.28251h-6.2825z" fill="#1a1a1a"/>
<path d="m840.95093-100.94371h6.2825v6.28251h-6.2825z" fill="#1a1a1a"/>
<path d="m862.75189-100.94371h6.2825v6.28251h-6.2825z" fill="#1a1a1a"/>
<g transform="translate(108.81303)">
<path d="m819.14996-352.24393h6.2825v6.28251h-6.2825z" fill="#1a1a1a"/>
<path d="m808.24951-352.24393h6.2825v6.28251h-6.2825z" fill="#1a1a1a"/>
<path d="m786.44849-352.24393h6.2825v6.28251h-6.2825z" fill="#1a1a1a"/>
<path d="m775.54803-352.24393h6.2825v6.28251h-6.2825z" fill="#1a1a1a"/>
<path d="m797.349-352.24393h6.2825v6.28251h-6.2825z" fill="#1a1a1a"/>
<path d="m851.85144-352.24393h6.2825v6.28251h-6.2825z" fill="#1a1a1a"/>
<path d="m830.05042-352.24393h6.2825v6.28251h-6.2825z" fill="#1a1a1a"/>
<path d="m840.95093-352.24393h6.2825v6.28251h-6.2825z" fill="#1a1a1a"/>
<path d="m862.75189-352.24393h6.2825v6.28251h-6.2825z" fill="#1a1a1a"/>
</g>
<g transform="translate(108.81303,10.9261)">
<path d="m819.14996-352.24393h6.2825v6.28251h-6.2825z" fill="#1a1a1a"/>
<path d="m808.24951-352.24393h6.2825v6.28251h-6.2825z" fill="#1a1a1a"/>
<path d="m786.44849-352.24393h6.2825v6.28251h-6.2825z" fill="#1a1a1a"/>
<path d="m775.54803-352.24393h6.2825v6.28251h-6.2825z" fill="#1a1a1a"/>
<path d="m797.349-352.24393h6.2825v6.28251h-6.2825z" fill="#1a1a1a"/>
<path d="m851.85144-352.24393h6.2825v6.28251h-6.2825z" fill="#1a1a1a"/>
<path d="m830.05042-352.24393h6.2825v6.28251h-6.2825z" fill="#1a1a1a"/>
<path d="m840.95093-352.24393h6.2825v6.28251h-6.2825z" fill="#1a1a1a"/>
<path d="m862.75189-352.24393h6.2825v6.28251h-6.2825z" fill="#1a1a1a"/>
</g>
<g transform="translate(108.81303,21.85219)">
<path d="m819.14996-352.24393h6.2825v6.28251h-6.2825z" fill="#1a1a1a"/>
<path d="m808.24951-352.24393h6.2825v6.28251h-6.2825z" fill="#1a1a1a"/>
<path d="m786.44849-352.24393h6.2825v6.28251h-6.2825z" fill="#1a1a1a"/>
<path d="m775.54803-352.24393h6.2825v6.28251h-6.2825z" fill="#1a1a1a"/>
<path d="m797.349-352.24393h6.2825v6.28251h-6.2825z" fill="#1a1a1a"/>
<path d="m851.85144-352.24393h6.2825v6.28251h-6.2825z" fill="#1a1a1a"/>
<path d="m830.05042-352.24393h6.2825v6.28251h-6.2825z" fill="#1a1a1a"/>
<path d="m840.95093-352.24393h6.2825v6.28251h-6.2825z" fill="#1a1a1a"/>
<path d="m862.75189-352.24393h6.2825v6.28251h-6.2825z" fill="#1a1a1a"/>
</g>
<g transform="translate(108.81303,32.77832)">
<path d="m819.14996-352.24393h6.2825v6.28251h-6.2825z" fill="#1a1a1a"/>
<path d="m808.24951-352.24393h6.2825v6.28251h-6.2825z" fill="#1a1a1a"/>
<path d="m786.44849-352.24393h6.2825v6.28251h-6.2825z" fill="#1a1a1a"/>
<path d="m775.54803-352.24393h6.2825v6.28251h-6.2825z" fill="#1a1a1a"/>
<path d="m797.349-352.24393h6.2825v6.28251h-6.2825z" fill="#1a1a1a"/>
<path d="m851.85144-352.24393h6.2825v6.28251h-6.2825z" fill="#1a1a1a"/>
<path d="m830.05042-352.24393h6.2825v6.28251h-6.2825z" fill="#1a1a1a"/>
<path d="m840.95093-352.24393h6.2825v6.28251h-6.2825z" fill="#1a1a1a"/>
<path d="m862.75189-352.24393h6.2825v6.28251h-6.2825z" fill="#1a1a1a"/>
</g>
<g transform="translate(108.81303,43.7044)">
<path d="m819.14996-352.24393h6.2825v6.28251h-6.2825z" fill="#1a1a1a"/>
<path d="m808.24951-352.24393h6.2825v6.28251h-6.2825z" fill="#1a1a1a"/>
<path d="m786.44849-352.24393h6.2825v6.28251h-6.2825z" fill="#1a1a1a"/>
<path d="m775.54803-352.24393h6.2825v6.28251h-6.2825z" fill="#1a1a1a"/>
<path d="m797.349-352.24393h6.2825v6.28251h-6.2825z" fill="#1a1a1a"/>
<path d="m851.85144-352.24393h6.2825v6.28251h-6.2825z" fill="#1a1a1a"/>
<path d="m830.05042-352.24393h6.2825v6.28251h-6.2825z" fill="#1a1a1a"/>
<path d="m840.95093-352.24393h6.2825v6.28251h-6.2825z" fill="#1a1a1a"/>
<path d="m862.75189-352.24393h6.2825v6.28251h-6.2825z" fill="#1a1a1a"/>
</g>
<g transform="translate(108.81303,54.63047)">
<path d="m819.14996-352.24393h6.2825v6.28251h-6.2825z" fill="#1a1a1a"/>
<path d="m808.24951-352.24393h6.2825v6.28251h-6.2825z" fill="#1a1a1a"/>
<path d="m786.44849-352.24393h6.2825v6.28251h-6.2825z" fill="#1a1a1a"/>
<path d="m775.54803-352.24393h6.2825v6.28251h-6.2825z" fill="#1a1a1a"/>
<path d="m797.349-352.24393h6.2825v6.28251h-6.2825z" fill="#1a1a1a"/>
<path d="m851.85144-352.24393h6.2825v6.28251h-6.2825z" fill="#1a1a1a"/>
<path d="m830.05042-352.24393h6.2825v6.28251h-6.2825z" fill="#1a1a1a"/>
<path d="m840.95093-352.24393h6.2825v6.28251h-6.2825z" fill="#1a1a1a"/>
<path d="m862.75189-352.24393h6.2825v6.28251h-6.2825z" fill="#1a1a1a"/>
</g>
<g transform="translate(108.81303,65.55656)">
<path d="m819.14996-352.24393h6.2825v6.28251h-6.2825z" fill="#1a1a1a"/>
<path d="m808.24951-352.24393h6.2825v6.28251h-6.2825z" fill="#1a1a1a"/>
<path d="m786.44849-352.24393h6.2825v6.28251h-6.2825z" fill="#1a1a1a"/>
<path d="m775.54803-352.24393h6.2825v6.28251h-6.2825z" fill="#1a1a1a"/>
<path d="m797.349-352.24393h6.2825v6.28251h-6.2825z" fill="#1a1a1a"/>
<path d="m851.85144-352.24393h6.2825v6.28251h-6.2825z" fill="#1a1a1a"/>
<path d="m830.05042-352.24393h6.2825v6.28251h-6.2825z" fill="#1a1a1a"/>
<path d="m840.95093-352.24393h6.2825v6.28251h-6.2825z" fill="#1a1a1a"/>
<path d="m862.75189-352.24393h6.2825v6.28251h-6.2825z" fill="#1a1a1a"/>
</g>
<g transform="translate(108.81303,76.48266)">
<path d="m819.14996-352.24393h6.2825v6.28251h-6.2825z" fill="#1a1a1a"/>
<path d="m808.24951-352.24393h6.2825v6.28251h-6.2825z" fill="#1a1a1a"/>
<path d="m786.44849-352.24393h6.2825v6.28251h-6.2825z" fill="#1a1a1a"/>
<path d="m775.54803-352.24393h6.2825v6.28251h-6.2825z" fill="#1a1a1a"/>
<path d="m797.349-352.24393h6.2825v6.28251h-6.2825z" fill="#1a1a1a"/>
<path d="m851.85144-352.24393h6.2825v6.28251h-6.2825z" fill="#1a1a1a"/>
<path d="m830.05042-352.24393h6.2825v6.28251h-6.2825z" fill="#1a1a1a"/>
<path d="m840.95093-352.24393h6.2825v6.28251h-6.2825z" fill="#1a1a1a"/>
<path d="m862.75189-352.24393h6.2825v6.28251h-6.2825z" fill="#1a1a1a"/>
</g>
<g transform="translate(108.81303,87.40876)">
<path d="m819.14996-352.24393h6.2825v6.28251h-6.2825z" fill="#1a1a1a"/>
<path d="m808.24951-352.24393h6.2825v6.28251h-6.2825z" fill="#1a1a1a"/>
<path d="m786.44849-352.24393h6.2825v6.28251h-6.2825z" fill="#1a1a1a"/>
<path d="m775.54803-352.24393h6.2825v6.28251h-6.2825z" fill="#1a1a1a"/>
<path d="m797.349-352.24393h6.2825v6.28251h-6.2825z" fill="#1a1a1a"/>
<path d="m851.85144-352.24393h6.2825v6.28251h-6.2825z" fill="#1a1a1a"/>
<path d="m830.05042-352.24393h6.2825v6.28251h-6.2825z" fill="#1a1a1a"/>
<path d="m840.95093-352.24393h6.2825v6.28251h-6.2825z" fill="#1a1a1a"/>
<path d="m862.75189-352.24393h6.2825v6.28251h-6.2825z" fill="#1a1a1a"/>
</g>
<g transform="translate(108.81303,98.33485)">
<path d="m819.14996-352.24393h6.2825v6.28251h-6.2825z" fill="#1a1a1a"/>
<path d="m808.24951-352.24393h6.2825v6.28251h-6.2825z" fill="#1a1a1a"/>
<path d="m786.44849-352.24393h6.2825v6.28251h-6.2825z" fill="#1a1a1a"/>
<path d="m775.54803-352.24393h6.2825v6.28251h-6.2825z" fill="#1a1a1a"/>
<path d="m797.349-352.24393h6.2825v6.28251h-6.2825z" fill="#1a1a1a"/>
<path d="m851.85144-352.24393h6.2825v6.28251h-6.2825z" fill="#1a1a1a"/>
<path d="m830.05042-352.24393h6.2825v6.28251h-6.2825z" fill="#1a1a1a"/>
<path d="m840.95093-352.24393h6.2825v6.28251h-6.2825z" fill="#1a1a1a"/>
<path d="m862.75189-352.24393h6.2825v6.28251h-6.2825z" fill="#1a1a1a"/>
</g>
<g transform="translate(108.81303,109.261)">
<path d="m819.14996-352.24393h6.2825v6.28251h-6.2825z" fill="#1a1a1a"/>
<path d="m808.24951-352.24393h6.2825v6.28251h-6.2825z" fill="#1a1a1a"/>
<path d="m786.44849-352.24393h6.2825v6.28251h-6.2825z" fill="#1a1a1a"/>
<path d="m775.54803-352.24393h6.2825v6.28251h-6.2825z" fill="#1a1a1a"/>
<path d="m797.349-352.24393h6.2825v6.28251h-6.2825z" fill="#1a1a1a"/>
<path d="m851.85144-352.24393h6.2825v6.28251h-6.2825z" fill="#1a1a1a"/>
<path d="m830.05042-352.24393h6.2825v6.28251h-6.2825z" fill="#1a1a1a"/>
<path d="m840.95093-352.24393h6.2825v6.28251h-6.2825z" fill="#1a1a1a"/>
<path d="m862.75189-352.24393h6.2825v6.28251h-6.2825z" fill="#1a1a1a"/>
</g>
<g transform="translate(108.81303,120.18706)">
<path d="m819.14996-352.24393h6.2825v6.28251h-6.2825z" fill="#1a1a1a"/>
<path d="m808.24951-352.24393h6.2825v6.28251h-6.2825z" fill="#1a1a1a"/>
<path d="m786.44849-352.24393h6.2825v6.28251h-6.2825z" fill="#1a1a1a"/>
<path d="m775.54803-352.24393h6.2825v6.28251h-6.2825z" fill="#1a1a1a"/>
<path d="m797.349-352.24393h6.2825v6.28251h-6.2825z" fill="#1a1a1a"/>
<path d="m851.85144-352.24393h6.2825v6.28251h-6.2825z" fill="#1a1a1a"/>
<path d="m830.05042-352.24393h6.2825v6.28251h-6.2825z" fill="#1a1a1a"/>
<path d="m840.95093-352.24393h6.2825v6.28251h-6.2825z" fill="#1a1a1a"/>
<path d="m862.75189-352.24393h6.2825v6.28251h-6.2825z" fill="#1a1a1a"/>
</g>
<g transform="translate(108.81303,131.11315)">
<path d="m819.14996-352.24393h6.2825v6.28251h-6.2825z" fill="#1a1a1a"/>
<path d="m808.24951-352.24393h6.2825v6.28251h-6.2825z" fill="#1a1a1a"/>
<path d="m786.44849-352.24393h6.2825v6.28251h-6.2825z" fill="#1a1a1a"/>
<path d="m775.54803-352.24393h6.2825v6.28251h-6.2825z" fill="#1a1a1a"/>
<path d="m797.349-352.24393h6.2825v6.28251h-6.2825z" fill="#1a1a1a"/>
<path d="m851.85144-352.24393h6.2825v6.28251h-6.2825z" fill="#1a1a1a"/>
<path d="m830.05042-352.24393h6.2825v6.28251h-6.2825z" fill="#1a1a1a"/>
<path d="m840.95093-352.24393h6.2825v6.28251h-6.2825z" fill="#1a1a1a"/>
<path d="m862.75189-352.24393h6.2825v6.28251h-6.2825z" fill="#1a1a1a"/>
</g>
<g transform="translate(108.81303,142.03923)">
<path d="m819.14996-352.24393h6.2825v6.28251h-6.2825z" fill="#1a1a1a"/>
<path d="m808.24951-352.24393h6.2825v6.28251h-6.2825z" fill="#1a1a1a"/>
<path d="m786.44849-352.24393h6.2825v6.28251h-6.2825z" fill="#1a1a1a"/>
<path d="m775.54803-352.24393h6.2825v6.28251h-6.2825z" fill="#1a1a1a"/>
<path d="m797.349-352.24393h6.2825v6.28251h-6.2825z" fill="#1a1a1a"/>
<path d="m851.85144-352.24393h6.2825v6.28251h-6.2825z" fill="#1a1a1a"/>
<path d="m830.05042-352.24393h6.2825v6.28251h-6.2825z" fill="#1a1a1a"/>
<path d="m840.95093-352.24393h6.2825v6.28251h-6.2825z" fill="#1a1a1a"/>
<path d="m862.75189-352.24393h6.2825v6.28251h-6.2825z" fill="#1a1a1a"/>
</g>
<g transform="translate(108.81303,152.96537)">
<path d="m819.14996-352.24393h6.2825v6.28251h-6.2825z" fill="#1a1a1a"/>
<path d="m808.24951-352.24393h6.2825v6.28251h-6.2825z" fill="#1a1a1a"/>
<path d="m786.44849-352.24393h6.2825v6.28251h-6.2825z" fill="#1a1a1a"/>
<path d="m775.54803-352.24393h6.2825v6.28251h-6.2825z" fill="#1a1a1a"/>
<path d="m797.349-352.24393h6.2825v6.28251h-6.2825z" fill="#1a1a1a"/>
<path d="m851.85144-352.24393h6.2825v6.28251h-6.2825z" fill="#1a1a1a"/>
<path d="m830.05042-352.24393h6.2825v6.28251h-6.2825z" fill="#1a1a1a"/>
<path d="m840.95093-352.24393h6.2825v6.28251h-6.2825z" fill="#1a1a1a"/>
<path d="m862.75189-352.24393h6.2825v6.28251h-6.2825z" fill="#1a1a1a"/>
</g>
<g transform="translate(108.81303,163.89144)">
<path d="m819.14996-352.24393h6.2825v6.28251h-6.2825z" fill="#1a1a1a"/>
<path d="m808.24951-352.24393h6.2825v6.28251h-6.2825z" fill="#1a1a1a"/>
<path d="m786.44849-352.24393h6.2825v6.28251h-6.2825z" fill="#1a1a1a"/>
<path d="m775.54803-352.24393h6.2825v6.28251h-6.2825z" fill="#1a1a1a"/>
<path d="m797.349-352.24393h6.2825v6.28251h-6.2825z" fill="#1a1a1a"/>
<path d="m851.85144-352.24393h6.2825v6.28251h-6.2825z" fill="#1a1a1a"/>
<path d="m830.05042-352.24393h6.2825v6.28251h-6.2825z" fill="#1a1a1a"/>
<path d="m840.95093-352.24393h6.2825v6.28251h-6.2825z" fill="#1a1a1a"/>
<path d="m862.75189-352.24393h6.2825v6.28251h-6.2825z" fill="#1a1a1a"/>
</g>
<g transform="translate(108.81303,174.81752)">
<path d="m819.14996-352.24393h6.2825v6.28251h-6.2825z" fill="#1a1a1a"/>
<path d="m808.24951-352.24393h6.2825v6.28251h-6.2825z" fill="#1a1a1a"/>
<path d="m786.44849-352.24393h6.2825v6.28251h-6.2825z" fill="#1a1a1a"/>
<path d="m775.54803-352.24393h6.2825v6.28251h-6.2825z" fill="#1a1a1a"/>
<path d="m797.349-352.24393h6.2825v6.28251h-6.2825z" fill="#1a1a1a"/>
<path d="m851.85144-352.24393h6.2825v6.28251h-6.2825z" fill="#1a1a1a"/>
<path d="m830.05042-352.24393h6.2825v6.28251h-6.2825z" fill="#1a1a1a"/>
<path d="m840.95093-352.24393h6.2825v6.28251h-6.2825z" fill="#1a1a1a"/>
<path d="m862.75189-352.24393h6.2825v6.28251h-6.2825z" fill="#1a1a1a"/>
</g>
<g transform="translate(108.81303,185.74365)">
<path d="m819.14996-352.24393h6.2825v6.28251h-6.2825z" fill="#1a1a1a"/>
<path d="m808.24951-352.24393h6.2825v6.28251h-6.2825z" fill="#1a1a1a"/>
<path d="m786.44849-352.24393h6.2825v6.28251h-6.2825z" fill="#1a1a1a"/>
<path d="m775.54803-352.24393h6.2825v6.28251h-6.2825z" fill="#1a1a1a"/>
<path d="m797.349-352.24393h6.2825v6.28251h-6.2825z" fill="#1a1a1a"/>
<path d="m851.85144-352.24393h6.2825v6.28251h-6.2825z" fill="#1a1a1a"/>
<path d="m830.05042-352.24393h6.2825v6.28251h-6.2825z" fill="#1a1a1a"/>
<path d="m840.95093-352.24393h6.2825v6.28251h-6.2825z" fill="#1a1a1a"/>
<path d="m862.75189-352.24393h6.2825v6.28251h-6.2825z" fill="#1a1a1a"/>
</g>
<g transform="translate(108.81303,196.66973)">
<path d="m819.14996-352.24393h6.2825v6.28251h-6.2825z" fill="#1a1a1a"/>
<path d="m808.24951-352.24393h6.2825v6.28251h-6.2825z" fill="#1a1a1a"/>
<path d="m786.44849-352.24393h6.2825v6.28251h-6.2825z" fill="#1a1a1a"/>
<path d="m775.54803-352.24393h6.2825v6.28251h-6.2825z" fill="#1a1a1a"/>
<path d="m797.349-352.24393h6.2825v6.28251h-6.2825z" fill="#1a1a1a"/>
<path d="m851.85144-352.24393h6.2825v6.28251h-6.2825z" fill="#1a1a1a"/>
<path d="m830.05042-352.24393h6.2825v6.28251h-6.2825z" fill="#1a1a1a"/>
<path d="m840.95093-352.24393h6.2825v6.28251h-6.2825z" fill="#1a1a1a"/>
<path d="m862.75189-352.24393h6.2825v6.28251h-6.2825z" fill="#1a1a1a"/>
</g>
<g transform="translate(108.81303,207.59583)">
<path d="m819.14996-352.24393h6.2825v6.28251h-6.2825z" fill="#1a1a1a"/>
<path d="m808.24951-352.24393h6.2825v6.28251h-6.2825z" fill="#1a1a1a"/>
<path d="m786.44849-352.24393h6.2825v6.28251h-6.2825z" fill="#1a1a1a"/>
<path d="m775.54803-352.24393h6.2825v6.28251h-6.2825z" fill="#1a1a1a"/>
<path d="m797.349-352.24393h6.2825v6.28251h-6.2825z" fill="#1a1a1a"/>
<path d="m851.85144-352.24393h6.2825v6.28251h-6.2825z" fill="#1a1a1a"/>
<path d="m830.05042-352.24393h6.2825v6.28251h-6.2825z" fill="#1a1a1a"/>
<path d="m840.95093-352.24393h6.2825v6.28251h-6.2825z" fill="#1a1a1a"/>
<path d="m862.75189-352.24393h6.2825v6.28251h-6.2825z" fill="#1a1a1a"/>
</g>
<g transform="translate(108.81303,218.52193)">
<path d="m819.14996-352.24393h6.2825v6.28251h-6.2825z" fill="#1a1a1a"/>
<path d="m808.24951-352.24393h6.2825v6.28251h-6.2825z" fill="#1a1a1a"/>
<path d="m786.44849-352.24393h6.2825v6.28251h-6.2825z" fill="#1a1a1a"/>
<path d="m775.54803-352.24393h6.2825v6.28251h-6.2825z" fill="#1a1a1a"/>
<path d="m797.349-352.24393h6.2825v6.28251h-6.2825z" fill="#1a1a1a"/>
<path d="m851.85144-352.24393h6.2825v6.28251h-6.2825z" fill="#1a1a1a"/>
<path d="m830.05042-352.24393h6.2825v6.28251h-6.2825z" fill="#1a1a1a"/>
<path d="m840.95093-352.24393h6.2825v6.28251h-6.2825z" fill="#1a1a1a"/>
<path d="m862.75189-352.24393h6.2825v6.28251h-6.2825z" fill="#1a1a1a"/>
</g>
<g transform="translate(108.81303,229.44803)">
<path d="m819.14996-352.24393h6.2825v6.28251h-6.2825z" fill="#1a1a1a"/>
<path d="m808.24951-352.24393h6.2825v6.28251h-6.2825z" fill="#1a1a1a"/>
<path d="m786.44849-352.24393h6.2825v6.28251h-6.2825z" fill="#1a1a1a"/>
<path d="m775.54803-352.24393h6.2825v6.28251h-6.2825z" fill="#1a1a1a"/>
<path d="m797.349-352.24393h6.2825v6.28251h-6.2825z" fill="#1a1a1a"/>
<path d="m851.85144-352.24393h6.2825v6.28251h-6.2825z" fill="#1a1a1a"/>
<path d="m830.05042-352.24393h6.2825v6.28251h-6.2825z" fill="#1a1a1a"/>
<path d="m840.95093-352.24393h6.2825v6.28251h-6.2825z" fill="#1a1a1a"/>
<path d="m862.75189-352.24393h6.2825v6.28251h-6.2825z" fill="#1a1a1a"/>
</g>
<g transform="translate(108.81303,240.37411)">
<path d="m819.14996-352.24393h6.2825v6.28251h-6.2825z" fill="#1a1a1a"/>
<path d="m808.24951-352.24393h6.2825v6.28251h-6.2825z" fill="#1a1a1a"/>
<path d="m786.44849-352.24393h6.2825v6.28251h-6.2825z" fill="#1a1a1a"/>
<path d="m775.54803-352.24393h6.2825v6.28251h-6.2825z" fill="#1a1a1a"/>
<path d="m797.349-352.24393h6.2825v6.28251h-6.2825z" fill="#1a1a1a"/>
<path d="m851.85144-352.24393h6.2825v6.28251h-6.2825z" fill="#1a1a1a"/>
<path d="m830.05042-352.24393h6.2825v6.28251h-6.2825z" fill="#1a1a1a"/>
<path d="m840.95093-352.24393h6.2825v6.28251h-6.2825z" fill="#1a1a1a"/>
<path d="m862.75189-352.24393h6.2825v6.28251h-6.2825z" fill="#1a1a1a"/>
</g>
<path d="m927.96301-100.94371h6.2825v6.28251h-6.2825z" fill="#1a1a1a"/>
<path d="m917.06256-100.94371h6.2825v6.28251h-6.2825z" fill="#1a1a1a"/>
<path d="m895.26154-100.94371h6.2825v6.28251h-6.2825z" fill="#1a1a1a"/>
<path d="m884.36108-100.94371h6.2825v6.28251h-6.2825z" fill="#1a1a1a"/>
<path d="m906.16205-100.94371h6.2825v6.28251h-6.2825z" fill="#1a1a1a"/>
<path d="m960.66449-100.94371h6.2825v6.28251h-6.2825z" fill="#1a1a1a"/>
<path d="m938.86346-100.94371h6.2825v6.28251h-6.2825z" fill="#1a1a1a"/>
<path d="m949.76398-100.94371h6.2825v6.28251h-6.2825z" fill="#1a1a1a"/>
<path d="m971.56494-100.94371h6.2825v6.28251h-6.2825z" fill="#1a1a1a"/>
<g transform="matrix(0,1,-1,0,527.94835,-1127.792)">
<path d="m819.14996-352.24393h6.2825v6.28251h-6.2825z" fill="#1a1a1a"/>
<path d="m808.24951-352.24393h6.2825v6.28251h-6.2825z" fill="#1a1a1a"/>
<path d="m786.44849-352.24393h6.2825v6.28251h-6.2825z" fill="#1a1a1a"/>
<path d="m775.54803-352.24393h6.2825v6.28251h-6.2825z" fill="#1a1a1a"/>
<path d="m797.349-352.24393h6.2825v6.28251h-6.2825z" fill="#1a1a1a"/>
<path d="m851.85144-352.24393h6.2825v6.28251h-6.2825z" fill="#1a1a1a"/>
<path d="m830.05042-352.24393h6.2825v6.28251h-6.2825z" fill="#1a1a1a"/>
<path d="m840.95093-352.24393h6.2825v6.28251h-6.2825z" fill="#1a1a1a"/>
<path d="m862.75189-352.24393h6.2825v6.28251h-6.2825z" fill="#1a1a1a"/>
</g>
<path d="m-144.54562-879.69226h6.2825v6.28251h-6.2825z" fill="#1a1a1a" transform="matrix(0,1,-1,0,0,0)"/>
<path d="m-155.44608-879.69226h6.2825v6.28251h-6.2825z" fill="#1a1a1a" transform="matrix(0,1,-1,0,0,0)"/>
<path d="m-177.2471-879.69226h6.2825v6.28251h-6.2825z" fill="#1a1a1a" transform="matrix(0,1,-1,0,0,0)"/>
<path d="m-188.14755-879.69226h6.2825v6.28251h-6.2825z" fill="#1a1a1a" transform="matrix(0,1,-1,0,0,0)"/>
<path d="m-166.34659-879.69226h6.2825v6.28251h-6.2825z" fill="#1a1a1a" transform="matrix(0,1,-1,0,0,0)"/>
<path d="m-111.84415-879.69226h6.2825v6.28251h-6.2825z" fill="#1a1a1a" transform="matrix(0,1,-1,0,0,0)"/>
<path d="m-133.64517-879.69226h6.2825v6.28251h-6.2825z" fill="#1a1a1a" transform="matrix(0,1,-1,0,0,0)"/>
<path d="m-122.74466-879.69226h6.2825v6.28251h-6.2825z" fill="#1a1a1a" transform="matrix(0,1,-1,0,0,0)"/>
<path d="m-100.9437-879.69226h6.2825v6.28251h-6.2825z" fill="#1a1a1a" transform="matrix(0,1,-1,0,0,0)"/>
<g transform="matrix(0,1,-1,0,527.44835,-1061.6938)">
<path d="m819.14996-352.24393h6.2825v6.28251h-6.2825z" fill="#1a1a1a"/>
<path d="m808.24951-352.24393h6.2825v6.28251h-6.2825z" fill="#1a1a1a"/>
<path d="m786.44849-352.24393h6.2825v6.28251h-6.2825z" fill="#1a1a1a"/>
<path d="m775.54803-352.24393h6.2825v6.28251h-6.2825z" fill="#1a1a1a"/>
<path d="m797.349-352.24393h6.2825v6.28251h-6.2825z" fill="#1a1a1a"/>
<path d="m851.85144-352.24393h6.2825v6.28251h-6.2825z" fill="#1a1a1a"/>
<path d="m830.05042-352.24393h6.2825v6.28251h-6.2825z" fill="#1a1a1a"/>
<path d="m840.95093-352.24393h6.2825v6.28251h-6.2825z" fill="#1a1a1a"/>
<path d="m862.75189-352.24393h6.2825v6.28251h-6.2825z" fill="#1a1a1a"/>
</g>
<path d="m819.14996-89.76668h6.2825v6.28251h-6.2825z" fill="#1a1a1a"/>
<path d="m808.24951-89.76668h6.2825v6.28251h-6.2825z" fill="#1a1a1a"/>
<path d="m851.85144-89.76668h6.2825v6.28251h-6.2825z" fill="#1a1a1a"/>
<path d="m830.05042-89.76668h6.2825v6.28251h-6.2825z" fill="#1a1a1a"/>
<path d="m840.95093-89.76668h6.2825v6.28251h-6.2825z" fill="#1a1a1a"/>
<path d="m862.75189-89.76668h6.2825v6.28251h-6.2825z" fill="#1a1a1a"/>
<path d="m819.14996-78.84061h6.2825v6.28251h-6.2825z" fill="#1a1a1a"/>
<path d="m808.24951-78.84061h6.2825v6.28251h-6.2825z" fill="#1a1a1a"/>
<path d="m851.85144-78.84061h6.2825v6.28251h-6.2825z" fill="#1a1a1a"/>
<path d="m830.05042-78.84061h6.2825v6.28251h-6.2825z" fill="#1a1a1a"/>
<path d="m840.95093-78.84061h6.2825v6.28251h-6.2825z" fill="#1a1a1a"/>
<path d="m862.75189-78.84061h6.2825v6.28251h-6.2825z" fill="#1a1a1a"/>
<path d="m819.14996-67.91447h6.2825v6.28251h-6.2825z" fill="#1a1a1a"/>
<path d="m808.24951-67.91447h6.2825v6.28251h-6.2825z" fill="#1a1a1a"/>
<path d="m851.85144-67.91447h6.2825v6.28251h-6.2825z" fill="#1a1a1a"/>
<path d="m830.05042-67.91447h6.2825v6.28251h-6.2825z" fill="#1a1a1a"/>
<path d="m840.95093-67.91447h6.2825v6.28251h-6.2825z" fill="#1a1a1a"/>
<path d="m862.75189-67.91447h6.2825v6.28251h-6.2825z" fill="#1a1a1a"/>
<path d="m819.14996-56.9884h6.2825v6.28251h-6.2825z" fill="#1a1a1a"/>
<path d="m808.24951-56.9884h6.2825v6.28251h-6.2825z" fill="#1a1a1a"/>
<path d="m851.85144-56.9884h6.2825v6.28251h-6.2825z" fill="#1a1a1a"/>
<path d="m830.05042-56.9884h6.2825v6.28251h-6.2825z" fill="#1a1a1a"/>
<path d="m840.95093-56.9884h6.2825v6.28251h-6.2825z" fill="#1a1a1a"/>
<path d="m862.75189-56.9884h6.2825v6.28251h-6.2825z" fill="#1a1a1a"/>
<g transform="translate(108.81303,262.47724)">
<path d="m819.14996-352.24393h6.2825v6.28251h-6.2825z" fill="#1a1a1a"/>
<path d="m808.24951-352.24393h6.2825v6.28251h-6.2825z" fill="#1a1a1a"/>
<path d="m786.44849-352.24393h6.2825v6.28251h-6.2825z" fill="#1a1a1a"/>
<path d="m775.54803-352.24393h6.2825v6.28251h-6.2825z" fill="#1a1a1a"/>
<path d="m797.349-352.24393h6.2825v6.28251h-6.2825z" fill="#1a1a1a"/>
<path d="m851.85144-352.24393h6.2825v6.28251h-6.2825z" fill="#1a1a1a"/>
<path d="m830.05042-352.24393h6.2825v6.28251h-6.2825z" fill="#1a1a1a"/>
<path d="m840.95093-352.24393h6.2825v6.28251h-6.2825z" fill="#1a1a1a"/>
<path d="m862.75189-352.24393h6.2825v6.28251h-6.2825z" fill="#1a1a1a"/>
</g>
<g transform="translate(108.81303,273.40332)">
<path d="m819.14996-352.24393h6.2825v6.28251h-6.2825z" fill="#1a1a1a"/>
<path d="m808.24951-352.24393h6.2825v6.28251h-6.2825z" fill="#1a1a1a"/>
<path d="m786.44849-352.24393h6.2825v6.28251h-6.2825z" fill="#1a1a1a"/>
<path d="m775.54803-352.24393h6.2825v6.28251h-6.2825z" fill="#1a1a1a"/>
<path d="m797.349-352.24393h6.2825v6.28251h-6.2825z" fill="#1a1a1a"/>
<path d="m851.85144-352.24393h6.2825v6.28251h-6.2825z" fill="#1a1a1a"/>
<path d="m830.05042-352.24393h6.2825v6.28251h-6.2825z" fill="#1a1a1a"/>
<path d="m840.95093-352.24393h6.2825v6.28251h-6.2825z" fill="#1a1a1a"/>
<path d="m862.75189-352.24393h6.2825v6.28251h-6.2825z" fill="#1a1a1a"/>
</g>
<g transform="translate(108.81303,284.32945)">
<path d="m819.14996-352.24393h6.2825v6.28251h-6.2825z" fill="#1a1a1a"/>
<path d="m808.24951-352.24393h6.2825v6.28251h-6.2825z" fill="#1a1a1a"/>
<path d="m786.44849-352.24393h6.2825v6.28251h-6.2825z" fill="#1a1a1a"/>
<path d="m775.54803-352.24393h6.2825v6.28251h-6.2825z" fill="#1a1a1a"/>
<path d="m797.349-352.24393h6.2825v6.28251h-6.2825z" fill="#1a1a1a"/>
<path d="m851.85144-352.24393h6.2825v6.28251h-6.2825z" fill="#1a1a1a"/>
<path d="m830.05042-352.24393h6.2825v6.28251h-6.2825z" fill="#1a1a1a"/>
<path d="m840.95093-352.24393h6.2825v6.28251h-6.2825z" fill="#1a1a1a"/>
<path d="m862.75189-352.24393h6.2825v6.28251h-6.2825z" fill="#1a1a1a"/>
</g>
<g transform="translate(108.81303,295.25553)">
<path d="m819.14996-352.24393h6.2825v6.28251h-6.2825z" fill="#1a1a1a"/>
<path d="m808.24951-352.24393h6.2825v6.28251h-6.2825z" fill="#1a1a1a"/>
<path d="m786.44849-352.24393h6.2825v6.28251h-6.2825z" fill="#1a1a1a"/>
<path d="m775.54803-352.24393h6.2825v6.28251h-6.2825z" fill="#1a1a1a"/>
<path d="m797.349-352.24393h6.2825v6.28251h-6.2825z" fill="#1a1a1a"/>
<path d="m851.85144-352.24393h6.2825v6.28251h-6.2825z" fill="#1a1a1a"/>
<path d="m830.05042-352.24393h6.2825v6.28251h-6.2825z" fill="#1a1a1a"/>
<path d="m840.95093-352.24393h6.2825v6.28251h-6.2825z" fill="#1a1a1a"/>
<path d="m862.75189-352.24393h6.2825v6.28251h-6.2825z" fill="#1a1a1a"/>
</g>
<path d="m-56.86028-879.69226h6.2825v6.28251h-6.2825z" fill="#1a1a1a" transform="matrix(0,1,-1,0,0,0)"/>
<path d="m-78.66131-879.69226h6.2825v6.28251h-6.2825z" fill="#1a1a1a" transform="matrix(0,1,-1,0,0,0)"/>
<path d="m-89.56175-879.69226h6.2825v6.28251h-6.2825z" fill="#1a1a1a" transform="matrix(0,1,-1,0,0,0)"/>
<path d="m-67.76079-879.69226h6.2825v6.28251h-6.2825z" fill="#1a1a1a" transform="matrix(0,1,-1,0,0,0)"/>
</g>
<g transform="translate(-735.55103,613.40063)">
<path d="m1005.4657-583.7138v567.90756c-9.58685-.07072-11.20071-10.10766-13.49855-19.28963v-529.81517c3.10996-15.9945 8.63295-15.09762 13.49855-18.80275z" fill="url(#linearGradient7921)" stroke="#9c9c9c" stroke-width="2.3"/>
<path d="m748.96715-583.7138v567.90755c9.58685-.07072 11.20075-10.10766 13.49855-19.28963v-529.81517c-3.11-15.9945-8.63295-15.09762-13.49855-18.80275z" fill="url(#linearGradient7938)" stroke="#9c9c9c" stroke-width="2.3"/>
</g>
<path d="m907.41235-225.63779c0,15.31208-12.41289,27.72497-27.72497,27.72497s-27.72497-12.41289-27.72497-27.72497 12.41289-27.72497 27.72497-27.72497 27.72497,12.41289 27.72497,27.72497z" fill="#b3b3b3" stroke="#333" stroke-miterlimit="2" stroke-width="4" transform="translate(-738.2551,566.74622)"/>
<path d="m907.41235-225.63779c0,15.31208-12.41289,27.72497-27.72497,27.72497s-27.72497-12.41289-27.72497-27.72497 12.41289-27.72497 27.72497-27.72497 27.72497,12.41289 27.72497,27.72497z" fill="#333" stroke="#333" stroke-miterlimit="2" stroke-width="4" transform="matrix(.34399,0,0,.34399,-161.16781,360.22466)"/>
<g transform="translate(-735.55103,613.40063)">
<path d="m781.86285-563.89453h190.05756v154.78348h-190.05756z" fill="#333"/>
<path d="m781.86285-396.89453h190.05756v38.78348h-190.05756z" fill="#333"/>
</g>
<g transform="translate(-735.55103,613.40063)">
<path d="m785.32075-560.80414h183.14169a.75386,.75386 0 0,1 .75386.75386v41.75742a.75386,.75386 0 0,1 -.75386.75386h-183.14169a.75386,.75386 0 0,1 -.75386-.75386v-41.75742a.75386,.75386 0 0,1 .75386-.75386" fill="#666"/>
<path d="m868.15857-455.08322h100.51962a.53809,.53809 0 0,1 .53809.53809v29.80564a.53809,.53809 0 0,1 -.53809.53809h-100.51962a.53809,.53809 0 0,1 -.53809-.53809v-29.80564a.53809,.53809 0 0,1 .53809-.53809" fill="#666"/>
<path d="m785.32075-512.53516h183.14169a.75386,.75386 0 0,1 .75386.75386v41.75742a.75386,.75386 0 0,1 -.75386.75386h-183.14169a.75386,.75386 0 0,1 -.75386-.75386v-41.75742a.75386,.75386 0 0,1 .75386-.75386" fill="#666"/>
</g>
<g transform="translate(0,9.375)">
<path d="m94.27781,16.12306h94.12551a3.93724,3.93724 0 0,1 3.93724,3.93724v1.12551a3.93724,3.93724 0 0,1 -3.93724,3.93724h-94.12551a3.93724,3.93724 0 0,1 -3.93724-3.93724v-1.12551a3.93724,3.93724 0 0,1 3.93724-3.93724" fill="#787878" stroke="#9c9c9c" stroke-width="2.3"/>
<path d="m217.73076-221.87239h17.58417a.75386,.75386 0 0,1 .75386.75386v4.14914a.75386,.75386 0 0,1 -.75386.75386h-17.58417a.75386,.75386 0 0,1 -.75386-.75386v-4.14914a.75386,.75386 0 0,1 .75386-.75386" fill="#4d4d4d" stroke="#999" transform="matrix(0,1,-1,0,0,0)"/>
<path d="m217.73076-208.82841h17.58417a.75386,.75386 0 0,1 .75386.75386v4.14914a.75386,.75386 0 0,1 -.75386.75386h-17.58417a.75386,.75386 0 0,1 -.75386-.75386v-4.14914a.75386,.75386 0 0,1 .75386-.75386" fill="#4d4d4d" stroke="#999" transform="matrix(0,1,-1,0,0,0)"/>
<path d="m922.77433,257.03412c0,5.85786-4.74874,10.6066-10.60661,10.6066s-10.6066-4.74874-10.6066-10.6066 4.74874-10.6066 10.6066-10.6066 10.60661,4.74873 10.60661,10.6066z" fill="#4d4d4d" stroke="#999" stroke-width="1.80394" transform="matrix(.55434,0,0,.55434,-416.65275,84.03807)"/>
</g>
</svg>
