<?xml version="1.0" encoding="UTF-8" standalone="no"?>
<svg width="213.33" xmlns="http://www.w3.org/2000/svg" height="213.33">
 <g fill-rule="evenodd">
  <g stroke-width="1.25">
   <path id="path2171" fill="#bfbfbf" d="m172.78 7.1875c-1.8904 1.1342-37.427 12.485-50.281 14.375 0.003288 0.009411 0.027901 0.084169 0.03125 0.09375-17.962 2.3777-35.534-20.706-51.469-11.812 0 0 0.062347 0.12459 0.0625 0.125-20.157 3.3978-39.605 8.2424-59.406 14.594 0 0 24.953 68.826 26.844 74.875 11.106-7.4044 51.875-16.524 58.906-17.969 0.009041 0.026062 0.053719 0.16212 0.0625 0.1875 20.033 3.3389 24.556 16.045 49.719 10.094 0.026962 0.033707 0.1655 0.4824 0.1875 0.5 6.0492-1.1342 49.906-14.75 49.906-14.75s-22.672-71.447-24.562-70.312z"/>
   <path id="path2167" fill="#404040" d="m7.9395 18.904l4.1588 4.9149 58.601 161.06-1.8904 4.9149-3.7807-2.2684-58.979-163.33-0.7561-3.0246 2.6465-2.2684z"/>
   <g fill="#fff" fill-opacity=".125">
    <path id="path2177" d="m143.67 17.013s27.599-10.964 29.49-9.8299c1.8904 1.1342 20.794 56.333 21.928 62.004 1.1342 5.6711-31.758-47.637-51.418-52.174z"/>
    <path id="path2178" d="m27.599 20.038s41.966-13.611 44.612-10.208c2.6465 3.4026 24.953 64.272 21.928 60.492-3.0246-3.7807-56.333-48.015-66.541-50.284z"/>
   </g>
  </g>
  <path id="path908" stroke-width="2.5" d="m174.28 5.1875c-19.451 6.6971-38.9 14.782-59.687 15.934-13.441-1.974-22.815-17.915-37.442-13.962-21.968 3.7778-43.412 9.9684-64.902 15.778-4.6958-11.989-11.252-3.7095-5.4593 7.8788 19.314 53.08 39.165 106.19 58.552 159.25 13.891 9.0481 2.2869-16.769 0.075081-23.173-8.1853-22.482-16.445-44.936-24.449-67.484 20.053-7.4672 40.692-15.372 62.24-16.292 12.176 3.1787 21.895 16.917 36.13 11.494 20.092-2.7511 38.998-10.449 58.397-15.905 0.71196-10.736-7.3407-22.891-9.9047-34.182-4.5074-13.114-9.0144-26.229-13.549-39.334zm-1.5312 3.2188c7.7917 22.646 15.583 45.292 23.375 67.938-22.043 6.7407-43.984 15.698-67.275 16.57-12.848-2.9094-21.774-15.862-37.274-11.278-17.649 3.2033-34.755 8.8467-51.42 15.395-8.8968-23.953-17.836-47.89-26.812-71.812 23.007-6.0353 45.844-13.218 69.528-16.146 13.995 1.8308 23.656 18.238 38.875 14.138 17.545-2.797 34.348-8.8176 51.003-14.805zm-151.91 44.22c14.863 39.286 29.121 78.839 43.362 118.32 3.2879 3.8345 8.5433 23.998 1.122 13.967-19.374-54.468-39.354-109.51-59.008-163.91 3.991-4.3651 9.4877 21.137 14.524 31.624z"/>
  <path id="path2176" fill-opacity=".094" stroke-width="1.25" d="m97.164 15.123s19.66 72.212 23.44 75.236c5.6711 6.0492 32.136 0 37.051-0.75614-26.465-15.879-49.906-54.064-55.577-72.212-2.6465-2.2684-1.5123 0.37808-4.9149-2.2684z"/>
 </g>
</svg>
