<?xml version="1.0" encoding="UTF-8" standalone="no"?>
<svg width="266.67" xmlns="http://www.w3.org/2000/svg" xmlns:xlink="http://www.w3.org/1999/xlink" height="293.33">
 <g id="layer1" stroke="#000" fill="#7f7f7f" transform="rotate(.071097 129.65 142.19)">
  <g id="g14451" transform="matrix(-22.182 0 0 22.182 7003.9 -12060)">
   <path id="path14452" fill-rule="evenodd" stroke-width=".312" d="m304.83 552.94l0.045 1.552c2.2418 1.2521 6.643 1.3571 9.4696-0.067444l0.0225-1.5521"/>
   <path id="path14453" stroke-linejoin="round" stroke-width=".263" d="m314.37 552.92c0.000763 0.74548-2.1344 1.35-4.7686 1.35s-4.7693-0.60449-4.7686-1.35c-0.000763-0.74554 2.1344-1.35 4.7686-1.35s4.7693 0.60443 4.7686 1.35z"/>
  </g>
  <g id="g14454" transform="matrix(-22.182 0 0 22.182 6990.2 -12093)">
   <path id="path14455" fill-rule="evenodd" stroke-width=".312" d="m304.83 552.94l0.045 1.552c2.2418 1.2521 6.643 1.3571 9.4696-0.067444l0.0225-1.5521"/>
   <path id="path14456" stroke-linejoin="round" stroke-width=".263" d="m314.37 552.92c0.000763 0.74548-2.1344 1.35-4.7686 1.35s-4.7693-0.60449-4.7686-1.35c-0.000763-0.74554 2.1344-1.35 4.7686-1.35s4.7693 0.60443 4.7686 1.35z"/>
  </g>
  <g id="g14457" transform="matrix(-22.182 0 0 22.182 6998.7 -12124)">
   <path id="path14458" fill-rule="evenodd" stroke-width=".312" d="m304.83 552.94l0.045 1.552c2.2418 1.2521 6.643 1.3571 9.4696-0.067444l0.0225-1.5521"/>
   <path id="path14459" stroke-linejoin="round" stroke-width=".263" d="m314.37 552.92c0.000763 0.74548-2.1344 1.35-4.7686 1.35s-4.7693-0.60449-4.7686-1.35c-0.000763-0.74554 2.1344-1.35 4.7686-1.35s4.7693 0.60443 4.7686 1.35z"/>
  </g>
  <g id="g14460" transform="matrix(-22.182 0 0 22.182 6995.9 -12155)">
   <path id="path14461" fill-rule="evenodd" stroke-width=".312" d="m304.83 552.94l0.045 1.552c2.2418 1.2521 6.643 1.3571 9.4696-0.067444l0.0225-1.5521"/>
   <path id="path14462" stroke-linejoin="round" stroke-width=".263" d="m314.37 552.92c0.000763 0.74548-2.1344 1.35-4.7686 1.35s-4.7693-0.60449-4.7686-1.35c-0.000763-0.74554 2.1344-1.35 4.7686-1.35s4.7693 0.60443 4.7686 1.35z"/>
  </g>
  <g id="g14463" transform="matrix(-22.182 0 0 22.182 6995.9 -12189)">
   <path id="path14464" fill-rule="evenodd" stroke-width=".312" d="m304.83 552.94l0.045 1.552c2.2418 1.2521 6.643 1.3571 9.4696-0.067444l0.0225-1.5521"/>
   <path id="path14465" stroke-linejoin="round" stroke-width=".263" d="m314.37 552.92c0.000763 0.74548-2.1344 1.35-4.7686 1.35s-4.7693-0.60449-4.7686-1.35c-0.000763-0.74554 2.1344-1.35 4.7686-1.35s4.7693 0.60443 4.7686 1.35z"/>
  </g>
  <g id="g14466" transform="matrix(-22.182 0 0 22.182 6990.2 -12220)">
   <path id="path14467" fill-rule="evenodd" stroke-width=".312" d="m304.83 552.94l0.045 1.552c2.2418 1.2521 6.643 1.3571 9.4696-0.067444l0.0225-1.5521"/>
   <path id="path14468" stroke-linejoin="round" stroke-width=".263" d="m314.37 552.92c0.000763 0.74548-2.1344 1.35-4.7686 1.35s-4.7693-0.60449-4.7686-1.35c-0.000763-0.74554 2.1344-1.35 4.7686-1.35s4.7693 0.60443 4.7686 1.35z"/>
  </g>
 </g>
</svg>
